<?xml version="1.0" encoding="utf-8"?>
<svg xmlns="http://www.w3.org/2000/svg" xmlns:svg="http://www.w3.org/2000/svg" version="1.1" viewBox="0 0 1400 340">
	<title>The titlepage for the Standard Ebooks edition of The Black Tulip, by Alexandre Dumas</title>
	<g aria-label="THE BLACK TULIP">
		<path d="m 251.54897,68.245613 h 18.33918 V 130 h 17.59064 V 68.245613 h 18.33919 V 52.807016 h -54.26901 z"/>
		<path d="M 334.74341,99.029239 H 359.6323 V 130 h 17.59065 V 52.807016 H 359.6323 V 83.590642 H 334.74341 V 52.807016 H 317.15277 V 130 h 17.59064 z"/>
		<path d="M 437.58845,52.807016 H 393.42471 V 130 h 44.16374 v -15.4386 h -26.5731 V 99.029239 h 25.45029 V 83.590642 H 411.01535 V 68.245613 h 26.5731 z"/>
		<path d="M 483.28582,52.807016 V 130 h 29.28655 c 16,0 25.26316,-8.79532 25.26316,-21.52047 0,-12.444443 -6.83041,-17.777776 -16.46784,-19.461987 6.54971,-3.368421 9.63743,-9.450292 9.63743,-16.561404 0,-14.690058 -10.47953,-19.649123 -23.76608,-19.649123 z m 17.59064,30.222223 V 66.374268 h 1.40351 c 7.67252,0 11.69591,2.339181 11.69591,7.859649 0,6.456141 -4.11696,8.795322 -11.69591,8.795322 z m 0,33.403511 V 98.187134 h 5.52047 c 8.32749,0 12.91228,2.526316 12.91228,9.637426 0,6.08187 -4.58479,8.60819 -12.91228,8.60819 z"/>
		<path d="M 568.19371,52.807016 H 550.60307 V 130 h 44.16374 v -15.4386 h -26.5731 z"/>
		<path d="m 649.08408,52.807016 h -16.2807 L 601.64548,130 h 18.90059 l 5.7076,-15.4386 h 29.38012 L 661.34139,130 h 18.90059 z m 0.5614,46.31579 h -17.4035 l 8.60818,-22.45614 h 0.18714 z"/>
		<path d="m 726.31361,114.09357 c -17.68421,0 -25.45029,-12.35088 -25.45029,-22.736846 0,-10.292397 7.76608,-22.643275 25.45029,-22.643275 8.98246,0 15.1579,4.77193 15.1579,4.77193 l 7.48538,-14.97076 c 0,0 -8.60819,-7.111112 -25.35673,-7.111112 -21.89474,0 -41.82456,17.964913 -41.82456,40.140352 0,22.081871 20.02339,39.859651 41.82456,39.859651 16.74854,0 25.35673,-7.11111 25.35673,-7.11111 l -7.48538,-14.97076 c 0,0 -6.17544,4.77193 -15.1579,4.77193 z"/>
		<path d="M 831.04752,130 795.11769,89.391812 826.18202,52.807016 H 804.84869 L 778.36915,84.33918 V 52.807016 H 760.77851 V 130 h 17.59064 V 97.251461 L 806.8136,130 Z"/>
		<path d="m 860.57674,68.245613 h 18.33918 V 130 h 17.59065 V 68.245613 h 18.33918 V 52.807016 h -54.26901 z"/>
		<path d="m 985.50222,52.807016 h -17.59065 v 44.63158 c 0,12.912284 -3.92982,16.654974 -12.53801,16.654974 -8.60818,0 -12.53801,-3.74269 -12.53801,-16.654974 v -44.63158 h -17.59064 v 49.777774 c 0,19.08772 10.47953,28.81872 30.12865,28.81872 19.64913,0 30.12866,-9.731 30.12866,-28.81872 z"/>
		<path d="m 1018.3984,52.807016 h -17.5906 V 130 h 44.1637 v -15.4386 h -26.5731 z"/>
		<path d="m 1076.2128,52.807016 h -17.5907 V 130 h 17.5907 z"/>
		<path d="M 1092.4964,52.807016 V 130 h 17.5906 v -28.63158 h 10.5731 c 15.0643,0 26.386,-8.888888 26.386,-24.795322 0,-16 -11.3217,-23.766082 -26.386,-23.766082 z m 17.5906,34.526317 V 66.842104 h 4.9591 c 6.924,0 13.4737,2.339181 13.4737,10.292398 0,7.859649 -6.5497,10.198831 -13.4737,10.198831 z"/>
	</g>
	<g aria-label="ALEXANDRE DUMAS">
		<path d="M 329.91886,232.10526 H 317.70834 L 294.33992,290 h 14.17543 l 4.28071,-11.57895 h 22.03508 L 339.11185,290 h 14.17543 z m 0.42106,34.73685 H 317.28728 L 323.74342,250 h 0.14036 z"/>
		<path d="M 373.66996,232.10526 H 360.47698 V 290 h 33.12281 v -11.57895 h -19.92983 z"/>
		<path d="m 438.21053,232.10526 h -33.1228 V 290 h 33.1228 v -11.57895 h -19.92982 v -11.64912 h 19.08772 v -11.57895 h -19.08772 v -11.50877 h 19.92982 z"/>
		<path d="m 504.97039,290 -22.59649,-31.15789 18.94737,-26.73685 h -16.42105 l -10.66667,15.78948 -10.66666,-15.78948 h -15.7193 L 466.0932,258.84211 444.19847,290 h 16.35087 L 474.23355,270.2807 487.91776,290 Z"/>
		<path d="M 541.25659,232.10526 H 529.04606 L 505.67764,290 h 14.17544 l 4.2807,-11.57895 h 22.03509 L 550.44957,290 h 14.17544 z m 0.42105,34.73685 H 528.62501 L 535.08115,250 h 0.14035 z"/>
		<path d="m 585.00768,254.07018 h 0.14035 L 608.16558,290 h 13.19298 v -57.89474 h -13.19298 v 35.92983 h -0.14035 L 585.00768,232.10526 H 571.8147 V 290 h 13.19298 z"/>
		<path d="M 634.79166,232.10526 V 290 h 16.77193 c 15.92982,0 29.19298,-12.07018 29.19298,-28.98246 0,-16.8421 -13.33333,-28.91228 -29.19298,-28.91228 z m 13.19298,46.10527 v -34.31579 h 2.03509 c 9.82456,0 16.49123,7.50877 16.49123,17.19298 -0.0702,9.68421 -6.73684,17.12281 -16.49123,17.12281 z"/>
		<path d="M 691.6009,232.10526 V 290 h 13.19298 V 267.12281 L 722.47809,290 h 16.77193 l -19.92983,-23.92982 c 7.08772,-2.24562 11.85965,-8.07018 11.85965,-16.77193 0,-11.36842 -8.14035,-17.19299 -18.87719,-17.19299 z m 13.19298,25.68421 v -15.15789 h 1.54386 c 4.98245,0 10.94737,0.35088 10.94737,7.57895 0,7.22807 -5.96492,7.57894 -10.94737,7.57894 z"/>
		<path d="M 780.02522,232.10526 H 746.90241 V 290 h 33.12281 v -11.57895 h -19.92983 v -11.64912 h 19.08772 v -11.57895 h -19.08772 v -11.50877 h 19.92983 z"/>
		<path d="M 816.79825,232.10526 V 290 h 16.77193 c 15.92983,0 29.19298,-12.07018 29.19298,-28.98246 0,-16.8421 -13.33333,-28.91228 -29.19298,-28.91228 z m 13.19298,46.10527 v -34.31579 h 2.03509 c 9.82456,0 16.49123,7.50877 16.49123,17.19298 -0.0702,9.68421 -6.73684,17.12281 -16.49123,17.12281 z"/>
		<path d="M 918.09868,232.10526 H 904.9057 v 33.47369 c 0,9.68421 -2.94737,12.49123 -9.40351,12.49123 -6.45614,0 -9.40351,-2.80702 -9.40351,-12.49123 V 232.10526 H 872.9057 v 37.33334 c 0,14.31579 7.85965,21.61403 22.59649,21.61403 14.73685,0 22.59649,-7.29824 22.59649,-21.61403 z"/>
		<path d="m 978.6875,290 h 13.19299 l -5.19299,-57.89474 h -14.03508 l -12.84211,33.40351 -12.8421,-33.40351 H 932.93312 L 927.74014,290 h 13.19298 l 2.73684,-34.31579 h 0.35088 l 11.85965,33.96491 h 7.85964 l 11.85965,-33.96491 h 0.35088 z"/>
		<path d="m 1031.5691,232.10526 h -12.2106 L 995.99012,290 h 14.17548 l 4.2807,-11.57895 h 22.0351 L 1040.7621,290 h 14.1754 z m 0.421,34.73685 h -13.0526 L 1025.3936,250 h 0.1404 z"/>
		<path d="m 1082.0899,231.05263 c -9.3333,0 -18.8772,6.8772 -18.8772,17.68421 0,6.03509 4.0702,11.4386 11.0175,14.8772 6.8772,3.43859 13.0527,5.33333 13.0527,9.54385 0,5.40351 -5.4737,5.68422 -8.3509,5.68422 -6.4561,0 -14.1754,-6.52632 -14.1754,-6.52632 l -6.5965,11.08772 c 0,0 8.2105,7.64912 21.7544,7.64912 11.2982,0 21.8245,-4.8421 21.8245,-18.66666 0,-7.57895 -7.0877,-13.05264 -13.5438,-15.78948 -6.5965,-2.80702 -12.0702,-5.12281 -12.0702,-8.35088 0,-3.15789 2.386,-5.19298 6.8772,-5.19298 5.9649,0 11.7193,4 11.7193,4 l 5.3333,-10.52631 c 0,0 -7.4386,-5.47369 -17.9649,-5.47369 z"/>
	</g>
</svg>
